<svg xmlns="http://www.w3.org/2000/svg" version="1.1" xmlns:xlink="http://www.w3.org/1999/xlink" xmlns:svgjs="http://svgjs.com/svgjs" width="1440" height="560" preserveAspectRatio="none" viewBox="0 0 1440 560"><g mask="url(&quot;#SvgjsMask1002&quot;)" fill="none"><rect width="1440" height="560" x="0" y="0" fill="#0e2a47"></rect><path d="M650.48 660.79C811.27 628.36 882.1 217.36 1131.82 214.91 1381.54 212.46 1484.79 391.23 1613.16 394.11" stroke="rgba(51,121,194,0.58)" stroke-width="2"></path><path d="M298.24 611.48C484.22 605.29 622.72 322.08 981.72 316.69 1340.72 311.3 1490.5 171.89 1665.2 171.09" stroke="rgba(51,121,194,0.58)" stroke-width="2"></path><path d="M679.84 636.62C844.15 603.36 914.5 183.78 1171.39 180.49 1428.28 177.2 1533.97 335.41 1662.94 337.29" stroke="rgba(51,121,194,0.58)" stroke-width="2"></path><path d="M594.72 592.71C743.26 584 854.57 311.6 1119.17 311.28 1383.77 310.96 1507.92 450.08 1643.62 451.28" stroke="rgba(51,121,194,0.58)" stroke-width="2"></path><path d="M452.85 600.14C569.97 586.2 529.76 330.49 835.3 323.88 1140.84 317.27 1405.54 178.93 1600.2 178.28" stroke="rgba(51,121,194,0.58)" stroke-width="2"></path></g><defs><mask id="SvgjsMask1002"><rect width="1440" height="560" fill="#ffffff"></rect></mask></defs></svg>