<svg xmlns="http://www.w3.org/2000/svg" version="1.1" xmlns:xlink="http://www.w3.org/1999/xlink" xmlns:svgjs="http://svgjs.com/svgjs" width="1440" height="560" preserveAspectRatio="none" viewBox="0 0 1440 560"><g mask="url(&quot;#SvgjsMask4474&quot;)" fill="none"><rect width="1440" height="560" x="0" y="0" fill="rgba(247, 244, 239, 1)"></rect><path d="M222 368L400 546" stroke-width="6" stroke="url(#SvgjsLinearGradient4475)" stroke-linecap="round" class="BottomRight"></path><path d="M718 220L504 6" stroke-width="8" stroke="url(#SvgjsLinearGradient4475)" stroke-linecap="round" class="BottomRight"></path><path d="M1240 251L943 -46" stroke-width="6" stroke="url(#SvgjsLinearGradient4476)" stroke-linecap="round" class="TopLeft"></path><path d="M702 347L991 636" stroke-width="8" stroke="url(#SvgjsLinearGradient4476)" stroke-linecap="round" class="TopLeft"></path><path d="M954 167L1298 511" stroke-width="8" stroke="url(#SvgjsLinearGradient4476)" stroke-linecap="round" class="TopLeft"></path><path d="M1142 142L860 -140" stroke-width="10" stroke="url(#SvgjsLinearGradient4475)" stroke-linecap="round" class="BottomRight"></path><path d="M1075 259L1264 448" stroke-width="10" stroke="url(#SvgjsLinearGradient4475)" stroke-linecap="round" class="BottomRight"></path><path d="M4 35L184 215" stroke-width="6" stroke="url(#SvgjsLinearGradient4475)" stroke-linecap="round" class="BottomRight"></path><path d="M715 440L435 160" stroke-width="10" stroke="url(#SvgjsLinearGradient4475)" stroke-linecap="round" class="BottomRight"></path><path d="M550 429L275 154" stroke-width="8" stroke="url(#SvgjsLinearGradient4476)" stroke-linecap="round" class="TopLeft"></path><path d="M234 135L-175 -274" stroke-width="10" stroke="url(#SvgjsLinearGradient4476)" stroke-linecap="round" class="TopLeft"></path><path d="M1106 486L815 195" stroke-width="6" stroke="url(#SvgjsLinearGradient4476)" stroke-linecap="round" class="TopLeft"></path><path d="M912 314L705 107" stroke-width="8" stroke="url(#SvgjsLinearGradient4475)" stroke-linecap="round" class="BottomRight"></path><path d="M853 548L701 396" stroke-width="8" stroke="url(#SvgjsLinearGradient4475)" stroke-linecap="round" class="BottomRight"></path><path d="M1301 365L958 22" stroke-width="6" stroke="url(#SvgjsLinearGradient4476)" stroke-linecap="round" class="TopLeft"></path><path d="M3 241L211 449" stroke-width="10" stroke="url(#SvgjsLinearGradient4476)" stroke-linecap="round" class="TopLeft"></path><path d="M1390 28L1560 198" stroke-width="6" stroke="url(#SvgjsLinearGradient4475)" stroke-linecap="round" class="BottomRight"></path><path d="M1307 135L1161 -11" stroke-width="8" stroke="url(#SvgjsLinearGradient4476)" stroke-linecap="round" class="TopLeft"></path><path d="M794 209L626 41" stroke-width="10" stroke="url(#SvgjsLinearGradient4475)" stroke-linecap="round" class="BottomRight"></path><path d="M526 262L327 63" stroke-width="8" stroke="url(#SvgjsLinearGradient4476)" stroke-linecap="round" class="TopLeft"></path><path d="M153 510L-22 335" stroke-width="6" stroke="url(#SvgjsLinearGradient4475)" stroke-linecap="round" class="BottomRight"></path><path d="M1337 522L1661 846" stroke-width="6" stroke="url(#SvgjsLinearGradient4476)" stroke-linecap="round" class="TopLeft"></path><path d="M792 88L1092 388" stroke-width="6" stroke="url(#SvgjsLinearGradient4476)" stroke-linecap="round" class="TopLeft"></path><path d="M585 453L278 146" stroke-width="6" stroke="url(#SvgjsLinearGradient4476)" stroke-linecap="round" class="TopLeft"></path><path d="M1296 180L1052 -64" stroke-width="10" stroke="url(#SvgjsLinearGradient4476)" stroke-linecap="round" class="TopLeft"></path><path d="M631 445L1009 823" stroke-width="6" stroke="url(#SvgjsLinearGradient4476)" stroke-linecap="round" class="TopLeft"></path><path d="M532 266L708 442" stroke-width="6" stroke="url(#SvgjsLinearGradient4476)" stroke-linecap="round" class="TopLeft"></path><path d="M825 212L1121 508" stroke-width="10" stroke="url(#SvgjsLinearGradient4476)" stroke-linecap="round" class="TopLeft"></path><path d="M44 487L194 637" stroke-width="8" stroke="url(#SvgjsLinearGradient4476)" stroke-linecap="round" class="TopLeft"></path><path d="M315 176L-84 -223" stroke-width="10" stroke="url(#SvgjsLinearGradient4475)" stroke-linecap="round" class="BottomRight"></path><path d="M418 373L568 523" stroke-width="6" stroke="url(#SvgjsLinearGradient4475)" stroke-linecap="round" class="BottomRight"></path><path d="M720 260L1008 548" stroke-width="8" stroke="url(#SvgjsLinearGradient4476)" stroke-linecap="round" class="TopLeft"></path><path d="M175 504L-82 247" stroke-width="10" stroke="url(#SvgjsLinearGradient4475)" stroke-linecap="round" class="BottomRight"></path><path d="M583 516L243 176" stroke-width="10" stroke="url(#SvgjsLinearGradient4475)" stroke-linecap="round" class="BottomRight"></path><path d="M813 551L396 134" stroke-width="10" stroke="url(#SvgjsLinearGradient4476)" stroke-linecap="round" class="TopLeft"></path><path d="M787 336L494 43" stroke-width="6" stroke="url(#SvgjsLinearGradient4475)" stroke-linecap="round" class="BottomRight"></path><path d="M824 362L1035 573" stroke-width="6" stroke="url(#SvgjsLinearGradient4475)" stroke-linecap="round" class="BottomRight"></path><path d="M195 355L350 510" stroke-width="10" stroke="url(#SvgjsLinearGradient4475)" stroke-linecap="round" class="BottomRight"></path><path d="M24 459L394 829" stroke-width="8" stroke="url(#SvgjsLinearGradient4475)" stroke-linecap="round" class="BottomRight"></path></g><defs><mask id="SvgjsMask4474"><rect width="1440" height="560" fill="#ffffff"></rect></mask><linearGradient x1="0%" y1="0%" x2="100%" y2="100%" id="SvgjsLinearGradient4475"><stop stop-color="rgba(128, 128, 128, 0)" offset="0"></stop><stop stop-color="rgba(128, 128, 128, 1)" offset="1"></stop></linearGradient><linearGradient x1="100%" y1="100%" x2="0%" y2="0%" id="SvgjsLinearGradient4476"><stop stop-color="rgba(128, 128, 128, 0)" offset="0"></stop><stop stop-color="rgba(128, 128, 128, 1)" offset="1"></stop></linearGradient></defs></svg>