<svg xmlns="http://www.w3.org/2000/svg" version="1.1" xmlns:xlink="http://www.w3.org/1999/xlink" xmlns:svgjs="http://svgjs.com/svgjs" width="1537" height="557" preserveAspectRatio="none" viewBox="0 0 1537 557"><g mask="url(&quot;#SvgjsMask1071&quot;)" fill="none"><rect width="1537" height="557" x="0" y="0" fill="rgba(255, 194, 34, 1)"></rect><path d="M0,416.922C83.69,416.303,175.322,427.327,242.882,377.931C309.624,329.133,326.167,239.156,350.996,160.294C373.127,90,386.444,18.826,379.026,-54.496C371.361,-130.267,357.294,-208.827,307.799,-266.709C258.17,-324.747,182.044,-348.934,108.794,-370.52C35.483,-392.124,-41.878,-413.871,-114.887,-391.268C-187.485,-368.793,-230.595,-299.755,-286.405,-248.172C-350.106,-189.295,-457.289,-153.295,-465.763,-66.967C-474.313,20.136,-363.972,70.043,-325.349,148.582C-288.361,223.797,-309.863,328.208,-245.201,381.54C-180.177,435.17,-84.285,417.545,0,416.922" fill="#e7a700"></path><path d="M1537 1042.682C1631.877 1036.388 1730.721 1034.275 1809.643 981.241 1887.859 928.681 1916.9270000000001 833.15 1967.315 753.518 2026.762 659.5699999999999 2135.167 582.554 2132.24 471.41700000000003 2129.301 359.83000000000004 2030.404 276.928 1952.652 196.83499999999998 1878.5720000000001 120.52499999999998 1794.987 55.42599999999999 1694.524 20.523000000000025 1590.554-15.599000000000046 1471.026-52.966999999999985 1372.013-4.8940000000000055 1274.245 42.575000000000045 1263.969 176.77300000000002 1196.774 262.193 1134.058 341.91999999999996 1025.3609999999999 382.91200000000003 991.68 478.595 955.483 581.426 962.428 699.553 1007.955 798.607 1053.436 897.5609999999999 1141.184 973.405 1240.0729999999999 1019.028 1332.094 1061.482 1435.88 1049.391 1537 1042.682" fill="#ffd25c"></path></g><defs><mask id="SvgjsMask1071"><rect width="1537" height="557" fill="#ffffff"></rect></mask></defs></svg>