<svg xmlns="http://www.w3.org/2000/svg" version="1.1" xmlns:xlink="http://www.w3.org/1999/xlink" xmlns:svgjs="http://svgjs.com/svgjs" width="1537" height="557" preserveAspectRatio="none" viewBox="0 0 1537 557"><g mask="url(&quot;#SvgjsMask1076&quot;)" fill="none"><rect width="1537" height="557" x="0" y="0" fill="rgba(0, 161, 73, 1)"></rect><path d="M0,594.196C114.421,575.697,240.752,587.949,331.565,515.925C419.967,445.813,436.246,322.929,475.436,217.124C511.625,119.421,551.351,24.813,552.062,-79.375C552.86,-196.416,555.111,-326.151,479.753,-415.708C404.202,-505.494,276.277,-528.793,160.087,-545.205C55.358,-559.998,-46.518,-533.849,-148.104,-504.396C-250.023,-474.847,-361.393,-453.559,-431.317,-373.739C-501.365,-293.776,-486.455,-174.802,-523.967,-75.335C-575.035,60.076,-714.547,172.875,-691.336,315.722C-668.036,459.114,-543.205,581.286,-408.453,635.565C-278.893,687.753,-137.886,616.488,0,594.196" fill="#00813a"></path><path d="M1537 1021.029C1650.1970000000001 1035.192 1767.569 1126.0520000000001 1868.327 1072.554 1967.8890000000001 1019.691 1976.358 880.095 2006.836 771.567 2033.246 677.524 2054.885 580.896 2033.142 485.666 2012.3609999999999 394.645 1944.607 327.065 1888.34 252.562 1827.745 172.329 1780.597 78.18200000000002 1690.976 32.60500000000002 1592.819-17.312999999999988 1475.071-44.652000000000044 1370.245-10.916000000000054 1266.129 22.591999999999985 1187.68 113.61700000000002 1137.416 210.75799999999998 1092.685 297.205 1115.016 398.259 1108.281 495.36 1102.123 584.139 1074.5059999999999 671.383 1099.54 756.781 1126.83 849.873 1171.953 945.658 1254.99 995.816 1337.444 1045.622 1441.416 1009.0699999999999 1537 1021.029" fill="#00c158"></path></g><defs><mask id="SvgjsMask1076"><rect width="1537" height="557" fill="#ffffff"></rect></mask></defs></svg>